<?xml version="1.0" encoding="UTF-8"?>
<svg width="16px" height="22px" viewBox="0 0 16 22" version="1.1" xmlns="http://www.w3.org/2000/svg" xmlns:xlink="http://www.w3.org/1999/xlink">
    <!-- Generator: Sketch 53 (72520) - https://sketchapp.com -->
    <title>data-users</title>
    <desc>Created with Sketch.</desc>
    <g id="Page-1" stroke="none" stroke-width="1" fill="none" fill-rule="evenodd">
        <g id="top" transform="translate(-937.000000, -976.000000)" fill="#000000" fill-rule="nonzero">
            <g id="Group-3" transform="translate(894.000000, 960.000000)">
                <path d="M58.1953125,33.5859375 C58.6015645,34.5546923 58.8124999,35.5703072 58.828125,36.6328125 C58.828125,36.8671887 58.7460946,37.0664054 58.5820312,37.2304688 C58.4179679,37.3945321 58.2187512,37.4765625 57.984375,37.4765625 C57.7499988,37.4765625 57.5507821,37.3945321 57.3867188,37.2304688 C57.2226554,37.0664054 57.140625,36.8671887 57.140625,36.6328125 C57.140625,34.929679 56.5429747,33.4804747 55.3476562,32.2851562 C54.1523378,31.0898378 52.7070397,30.4921875 51.0117188,30.4921875 C49.3163978,30.4921875 47.8710997,31.093744 46.6757812,32.296875 C45.4804628,33.500006 44.8828125,34.9453041 44.8828125,36.6328125 C44.8828125,36.8671887 44.8007821,37.0664054 44.6367188,37.2304688 C44.4726554,37.3945321 44.2734387,37.4765625 44.0390625,37.4765625 C43.8046863,37.4765625 43.6054696,37.3945321 43.4414062,37.2304688 C43.2773429,37.0664054 43.1953125,36.8671887 43.1953125,36.6328125 C43.1953125,35.5703072 43.3984355,34.5546923 43.8046875,33.5859375 C44.1953145,32.6484328 44.7499964,31.8203161 45.46875,31.1015625 C46.1875036,30.3828089 47.0156203,29.828127 47.953125,29.4375 C48.2500015,29.2968743 48.5781232,29.179688 48.9375,29.0859375 C47.9843702,28.7734359 47.1484411,28.2578161 46.4296875,27.5390625 C45.1796813,26.2734312 44.5546875,24.7500089 44.5546875,22.96875 C44.5546875,21.1874911 45.1835875,19.667975 46.4414062,18.4101562 C47.699225,17.1523375 49.2187411,16.5234375 51,16.5234375 C52.7812589,16.5234375 54.3046812,17.1523375 55.5703125,18.4101562 C56.8359438,19.667975 57.46875,21.1874911 57.46875,22.96875 C57.46875,24.7500089 56.8359438,26.2734312 55.5703125,27.5390625 C54.8515589,28.2578161 54.0156298,28.7734359 53.0625,29.0859375 C53.4062517,29.179688 53.7343734,29.2968743 54.046875,29.4375 C54.9843797,29.828127 55.8124964,30.3828089 56.53125,31.1015625 C57.2500036,31.8203161 57.8046855,32.6484328 58.1953125,33.5859375 Z M47.625,26.34375 C48.5625047,27.2812547 49.6874934,27.75 51,27.75 C52.3125066,27.75 53.4335891,27.2812547 54.3632812,26.34375 C55.2929734,25.4062453 55.7578125,24.2812566 55.7578125,22.96875 C55.7578125,21.6562434 55.2929734,20.5351609 54.3632812,19.6054688 C53.4335891,18.6757766 52.3125066,18.2109375 51,18.2109375 C49.6874934,18.2109375 48.5664109,18.6757766 47.6367188,19.6054688 C46.7070266,20.5351609 46.2421875,21.6562434 46.2421875,22.96875 C46.2421875,24.2812566 46.7031204,25.4062453 47.625,26.34375 Z" id="data-users"></path>
            </g>
        </g>
    </g>
</svg>