<?xml version="1.0" encoding="UTF-8"?>
<svg width="24px" height="20px" viewBox="0 0 24 20" version="1.1" xmlns="http://www.w3.org/2000/svg" xmlns:xlink="http://www.w3.org/1999/xlink">
    <!-- Generator: Sketch 53 (72520) - https://sketchapp.com -->
    <title>data-projects</title>
    <desc>Created with Sketch.</desc>
    <g id="Page-1" stroke="none" stroke-width="1" fill="none" fill-rule="evenodd">
        <g id="top" transform="translate(-1137.000000, -977.000000)" fill="#000000" fill-rule="nonzero">
            <g id="Group-3" transform="translate(894.000000, 960.000000)">
                <path d="M265.523438,25 C266.02344,25.0625003 266.421874,25.3046854 266.71875,25.7265625 C267.015626,26.1484396 267.101563,26.6015601 266.976562,27.0859375 L264.820312,35.7109375 C264.726562,36.0859394 264.527345,36.39453 264.222656,36.6367188 C263.917967,36.8789075 263.570314,37 263.179688,37 L244.546875,37 L244.523438,36.9765625 C244.257811,36.9609374 244.007814,36.8750008 243.773438,36.71875 L243.738281,36.6835938 C243.730469,36.6757812 243.71875,36.671875 243.703125,36.671875 L243.703125,36.6484375 C243.6875,36.6484375 243.675781,36.6445313 243.667969,36.6367188 C243.660156,36.6289062 243.652344,36.625 243.644531,36.625 C243.636719,36.625 243.632812,36.6210938 243.632812,36.6132812 C243.632812,36.6054687 243.625,36.6015625 243.609375,36.6015625 C243.609375,36.5859374 243.605469,36.5742188 243.597656,36.5664062 L243.574219,36.5429688 C243.566406,36.5351562 243.554688,36.53125 243.539062,36.53125 C243.335936,36.3437491 243.195313,36.1171888 243.117188,35.8515625 C243.101562,35.8359374 243.09375,35.8125002 243.09375,35.78125 L243.09375,35.7578125 L243.082031,35.7460938 C243.074219,35.7382812 243.070312,35.7304688 243.070312,35.7226562 L243.070312,35.6640625 L243.046875,35.640625 L243.046875,35.5703125 C243.03125,35.476562 243.023438,35.3906254 243.023438,35.3125 L243.023438,19.1875 C243.023438,18.7187477 243.187498,18.3203141 243.515625,17.9921875 C243.843752,17.6640609 244.242185,17.5 244.710938,17.5 L252.28125,17.5 C252.656252,17.5 252.992186,17.6093739 253.289062,17.828125 C253.585939,18.0468761 253.789062,18.3281233 253.898438,18.671875 L254.484375,20.5 L263.835938,20.5 C264.30469,20.5 264.703123,20.6640609 265.03125,20.9921875 C265.359377,21.3203141 265.523438,21.7187477 265.523438,22.1875 L265.523438,25 Z M244.710938,19.1875 L244.710938,28.3515625 L245.226562,26.265625 C245.320313,25.8906231 245.51953,25.5859387 245.824219,25.3515625 C246.128908,25.1171863 246.476561,25 246.867188,25 L263.835938,25 L263.835938,22.1875 L253.242188,22.1875 L252.28125,19.1875 L244.710938,19.1875 Z M263.179688,35.3125 L265.335938,26.6875 L246.867188,26.6875 L244.710938,35.3125 L263.179688,35.3125 Z" id="data-projects"></path>
            </g>
        </g>
    </g>
</svg>