<?xml version="1.0" encoding="UTF-8"?>
<svg width="20px" height="22px" viewBox="0 0 20 22" version="1.1" xmlns="http://www.w3.org/2000/svg" xmlns:xlink="http://www.w3.org/1999/xlink">
    <!-- Generator: Sketch 53 (72520) - https://sketchapp.com -->
    <title>data-groups</title>
    <desc>Created with Sketch.</desc>
    <g id="Page-1" stroke="none" stroke-width="1" fill="none" fill-rule="evenodd">
        <g id="top" transform="translate(-1037.000000, -976.000000)" fill="#000000" fill-rule="nonzero">
            <g id="Group-3" transform="translate(894.000000, 960.000000)">
                <path d="M160.664062,26.4140625 C161.710943,27.4609427 162.242187,28.7265551 162.257812,30.2109375 L162.257812,34.078125 C162.257812,34.6562529 162.046877,35.1523417 161.625,35.5664062 C161.203123,35.9804708 160.703128,36.1875 160.125,36.1875 L154.3125,36.1875 C154.140624,36.578127 153.878908,36.89453 153.527344,37.1367188 C153.175779,37.3789075 152.789065,37.5 152.367188,37.5 L145.898438,37.5 C145.304685,37.5 144.800783,37.2890646 144.386719,36.8671875 C143.972654,36.4453104 143.765625,35.9453154 143.765625,35.3671875 L143.765625,31.5 C143.765625,30.0312427 144.289057,28.7734427 145.335938,27.7265625 C145.80469,27.2578102 146.335935,26.8906263 146.929688,26.625 C146.226559,26.2499981 145.656252,25.7421907 145.21875,25.1015625 C144.671872,24.3046835 144.398438,23.4218798 144.398438,22.453125 C144.398438,21.1562435 144.85937,20.0468796 145.78125,19.125 C146.70313,18.2031204 147.820306,17.7421875 149.132812,17.7421875 C150.492194,17.7421875 151.64062,18.2421825 152.578125,19.2421875 C152.921877,18.4609336 153.445309,17.8125026 154.148438,17.296875 C154.960942,16.7343722 155.874995,16.453125 156.890625,16.453125 C158.187506,16.453125 159.29687,16.9101517 160.21875,17.8242188 C161.14063,18.7382858 161.601562,19.8515559 161.601562,21.1640625 C161.601562,22.1328173 161.328128,23.015621 160.78125,23.8125 C160.343748,24.4531282 159.781253,24.9531232 159.09375,25.3125 C159.671878,25.5781263 160.19531,25.9453102 160.664062,26.4140625 Z M153.84375,21.1640625 C153.84375,22.0078167 154.140622,22.7265595 154.734375,23.3203125 C155.328128,23.9140655 156.046871,24.2109375 156.890625,24.2109375 C157.734379,24.2109375 158.453122,23.9101593 159.046875,23.3085938 C159.640628,22.7070282 159.9375,21.9882854 159.9375,21.1523438 C159.9375,20.3164021 159.640628,19.6015655 159.046875,19.0078125 C158.453122,18.4140595 157.734379,18.1171875 156.890625,18.1171875 C156.046871,18.1171875 155.328128,18.4140595 154.734375,19.0078125 C154.140622,19.6015655 153.84375,20.3203083 153.84375,21.1640625 Z M146.953125,24.609375 C147.546878,25.203128 148.265621,25.5 149.109375,25.5 C149.953129,25.5 150.671872,25.203128 151.265625,24.609375 C151.859378,24.015622 152.15625,23.2968792 152.15625,22.453125 C152.15625,21.6093708 151.859378,20.890628 151.265625,20.296875 C150.671872,19.703122 149.953129,19.40625 149.109375,19.40625 C148.265621,19.40625 147.546878,19.703122 146.953125,20.296875 C146.359372,20.890628 146.0625,21.6093708 146.0625,22.453125 C146.0625,23.2968792 146.359372,24.015622 146.953125,24.609375 Z M152.8125,35.3671875 L152.8125,31.5 C152.8125,30.5156201 152.460941,29.6640661 151.757812,28.9453125 L151.757812,28.921875 L151.734375,28.8984375 C150.999996,28.1796839 150.125005,27.8203125 149.109375,27.8203125 C148.093745,27.8203125 147.226566,28.1796839 146.507812,28.8984375 C145.789059,29.6171911 145.429688,30.4843699 145.429688,31.5 L145.429688,35.3671875 C145.429688,35.4921881 145.472656,35.5976558 145.558594,35.6835938 C145.644532,35.7695317 145.749999,35.8125 145.875,35.8125 L152.34375,35.8125 C152.468751,35.8125 152.578125,35.7695317 152.671875,35.6835938 C152.765625,35.5976558 152.8125,35.4921881 152.8125,35.3671875 Z M152.390625,27.28125 C152.593751,26.9687484 152.828124,26.6796888 153.09375,26.4140625 C153.562502,25.9453102 154.093747,25.5781263 154.6875,25.3125 C154.218748,25.0781238 153.796877,24.765627 153.421875,24.375 C152.984373,25.3593799 152.281255,26.1093724 151.3125,26.625 C151.703127,26.7968759 152.062498,27.0156237 152.390625,27.28125 Z M160.570312,34.078125 L160.570312,30.2109375 C160.570312,29.1953074 160.210941,28.3242224 159.492188,27.5976562 C158.773434,26.8710901 157.906255,26.5078125 156.890625,26.5078125 C155.874995,26.5078125 155.000004,26.8749963 154.265625,27.609375 C153.999999,27.8750013 153.773438,28.1874982 153.585938,28.546875 C154.17969,29.4375045 154.476562,30.4218696 154.476562,31.5 L154.476562,34.5234375 L160.125,34.5234375 C160.250001,34.5234375 160.355468,34.4804692 160.441406,34.3945312 C160.527344,34.3085933 160.570312,34.2031256 160.570312,34.078125 Z" id="data-groups"></path>
            </g>
        </g>
    </g>
</svg>